<?xml version="1.0" standalone="no"?>
<!DOCTYPE svg PUBLIC "-//W3C//DTD SVG 1.1//EN" "http://www.w3.org/Graphics/SVG/1.1/DTD/svg11.dtd" >
<!--
2013-9-30: Created.
-->
<svg>
<metadata>
Created by iconfont
</metadata>
<defs>

<font id="iconfont" horiz-adv-x="1024" >
  <font-face
    font-family="iconfont"
    font-weight="500"
    font-stretch="normal"
    units-per-em="1024"
    ascent="896"
    descent="-128"
  />
    <missing-glyph />
    
    <glyph glyph-name="x" unicode="x" horiz-adv-x="1001"
d="M281 543q-27 -1 -53 -1h-83q-18 0 -36.5 -6t-32.5 -18.5t-23 -32t-9 -45.5v-76h912v41q0 16 -0.5 30t-0.5 18q0 13 -5 29t-17 29.5t-31.5 22.5t-49.5 9h-133v-97h-438v97zM955 310v-52q0 -23 0.5 -52t0.5 -58t-10.5 -47.5t-26 -30t-33 -16t-31.5 -4.5q-14 -1 -29.5 -0.5
t-29.5 0.5h-32l-45 128h-439l-44 -128h-29h-34q-20 0 -45 1q-25 0 -41 9.5t-25.5 23t-13.5 29.5t-4 30v167h911zM163 247q-12 0 -21 -8.5t-9 -21.5t9 -21.5t21 -8.5q13 0 22 8.5t9 21.5t-9 21.5t-22 8.5zM316 123q-8 -26 -14 -48q-5 -19 -10.5 -37t-7.5 -25t-3 -15t1 -14.5
t9.5 -10.5t21.5 -4h37h67h81h80h64h36q23 0 34 12t2 38q-5 13 -9.5 30.5t-9.5 34.5q-5 19 -11 39h-368zM336 498v228q0 11 2.5 23t10 21.5t20.5 15.5t34 6h188q31 0 51.5 -14.5t20.5 -52.5v-227h-327z" />
    

    
    <glyph glyph-name="feiji" unicode="&#59022;" d="M951.822632 708.879388c-2.77623 2.197038-6.570649 2.582825-9.665127 0.949628L69.066517 263.358475c-3.251044-1.670036-5.166673-5.114484-4.88424-8.752338 0.315178-3.638877 2.77623-6.730285 6.255471-7.838525l292.266483-92.89676c3.075035-0.966001 6.396687-0.245593 8.752338 1.90028l404.309302 364.274494-322.81729-382.112768c-1.950422-2.303462-2.618641-5.449106-1.75804-8.347109 0.862647-2.902096 3.110851-5.186116 6.010901-6.066159l324.294944-98.780771c0.844228-0.26606 1.722224-0.387833 2.602268-0.387833 1.544169 0 3.090385 0.404206 4.460592 1.177825 2.146896 1.230014 3.709485 3.28686 4.288676 5.692652L954.985672 699.688052C955.812503 703.115104 954.581466 706.700769 951.822632 708.879388zM552.082392 52.574794l-89.627297 27.574009c-2.706645 0.881067-5.694699 0.352017-7.979742-1.353834-2.301416-1.703805-3.65525-4.394077-3.65525-7.238868l0-169.168887c0-4.006244 2.636037-7.522324 6.502088-8.644891 0.809435-0.229221 1.651616-0.352017 2.495844-0.352017 3.022847 0 5.921873 1.526773 7.590885 4.182252L557.038264 39.16539c1.511423 2.371 1.829671 5.306866 0.843204 7.92653C556.916491 49.727956 554.771641 51.748986 552.082392 52.574794z"  horiz-adv-x="1024" />

    
    <glyph glyph-name="fenxiang" unicode="&#58940;" d="M928.057881 289.377058c-20.193925 0-36.579103-16.385179-36.579103-36.573987L891.478777-66.961696c0-6.716982-5.472642-12.19474-12.1886-12.19474L151.817708-79.156436c-6.716982 0-12.19474 5.478781-12.19474 12.19474L139.622968 656.457458c0 6.731308 5.478781 12.19474 12.19474 12.19474l337.491501 0c20.193925 0 36.579103 16.372899 36.579103 36.57808 0 20.205181-16.385179 36.573987-36.579103 36.573987L151.817708 741.804265c-47.057759 0-85.346807-38.289048-85.346807-85.346807L66.470901-66.961696c0-47.057759 38.294165-85.346807 85.346807-85.346807L879.290177-152.308503c47.050596 0 85.345784 38.289048 85.345784 85.346807L964.635961 252.803072C964.635961 272.99188 948.251805 289.377058 928.057881 289.377058zM956.281689 728.662967c-5.02341 5.500271-12.051477 9.386788-21.089317 10.371208-3.462868 0.660032-7.02909 0.783853-10.603499 0.251733-87.690178 0-175.380356 0-263.070534 0-46.829562 0-46.829562-72.618924 0-72.618924 61.073984 0 122.146944 0 183.220928 0C712.658066 530.633774 580.577888 394.599542 448.497711 258.565309c-32.621978-33.598212 18.680455-84.99479 51.349505-51.349505 131.48052 135.415133 262.960017 270.831288 394.440537 406.246421 0-59.854203 0-119.709429 0-179.563632 0-46.829562 72.618924-46.829562 72.618924 0 0 89.692788 0 179.385577 0 269.077342C966.905654 714.260955 962.682469 722.816818 956.281689 728.662967z"  horiz-adv-x="1024" />

    
    <glyph glyph-name="tupian" unicode="&#59056;" d="M918.528-47.04 105.472-47.04c-47.616 0-86.208 38.656-86.208 86.208L19.264 257.152c15.616-10.112 61.568-113.152 211.84-118.4 145.536-4.864 298.304 238.272 469.312 255.04 123.904 12.16 246.4-114.56 304.256-179.712l0-174.976C1004.736-8.448 966.144-47.04 918.528-47.04zM688.128 454.144C592.384 440.384 548.928 398.976 496 364.288c-118.72-77.76-187.2-174.144-289.472-163.904C125.568 208.64 38.336 310.016 19.328 330.88L19.328 728.832c0 47.68 38.592 86.272 86.208 86.272l812.992 0c47.616 0 86.272-38.592 86.272-86.272l0-432.96C919.232 402.688 782.976 467.84 688.128 454.144zM327.232 630.336c-68.032 0-123.136-55.168-123.136-123.2 0-68.032 55.104-123.2 123.136-123.2s123.2 55.168 123.2 123.2C450.432 575.168 395.264 630.336 327.232 630.336z"  horiz-adv-x="1024" />

    
    <glyph glyph-name="shizhong" unicode="&#59215;" d="M511.913993 832.010751c-247.012263 0-447.924744-200.912481-447.924744-447.924744s200.912481-447.924744 447.924744-447.924744 447.924744 200.912481 447.924744 447.924744S758.926256 832.010751 511.913993 832.010751zM511.913993 0.322526c-211.577356 0-383.763481 172.186125-383.763481 383.763481 0 211.577356 172.014111 383.763481 383.763481 383.763481s383.763481-172.014111 383.763481-383.763481S723.491349 0.322526 511.913993 0.322526zM672.05913 384.086007l-159.973123 0L512.086007 607.876365c0 17.717453-14.277171 32.166639-31.994625 32.166639-17.717453 0-31.994625-14.449185-31.994625-32.166639l0-255.956996c0-17.717453 14.277171-31.994625 31.994625-31.994625l191.967747 0c17.717453 0 32.166639 14.277171 32.166639 31.994625C704.053754 369.808836 689.604569 384.086007 672.05913 384.086007z"  horiz-adv-x="1024" />

    
    <glyph glyph-name="xiangzuo2" unicode="&#59258;" d="M512-64c-247.039484 0-448 200.960516-448 448S264.960516 832 512 832 960 631.039484 960 384 759.039484-64 512-64zM512 768c-211.744443 0-384-172.255557-384-384s172.255557-384 384-384 384 172.255557 384 384S723.744443 768 512 768zM290.367854 371.647252c0.032684-0.127295 0.192662-0.25631 0.25631-0.383604 1.536138-3.615858 3.648542-7.071738 6.591802-10.047682 0.032684-0.032684 0.063647-0.032684 0.096331-0.063647s0.032684-0.063647 0.063647-0.096331l158.911974-159.359226c12.480043-12.512727 32.704421-12.576374 45.248112-0.063647 12.512727 12.480043 12.54369 32.704421 0.063647 45.248112l-103.327187 103.616181 305.056632 0c17.664722 0 31.99914 14.336138 31.99914 32.00086s-14.336138 32.00086-31.99914 32.00086L396.576374 414.499126l106.112189 104.959656c12.576374 12.447359 12.672705 32.671738 0.25631 45.248112-6.240882 6.335493-14.496116 9.504099-22.751351 9.504099-8.12794 0-16.25588-3.103239-22.496761-9.247789l-160.25545-158.495686C288.00086 397.087273 285.632146 383.296439 290.367854 371.647252z"  horiz-adv-x="1024" />

    
    <glyph glyph-name="sousuo" unicode="&#58936;" d="M948.18836-18.49498l-182.547593 182.545546c62.975287 70.596871 101.252055 163.701362 101.252055 265.748526 0 220.573651-178.806385 399.380036-399.375943 399.380036S68.140936 650.372743 68.140936 429.799092c0-220.567511 178.806385-399.37492 399.375943-399.37492 96.957239 0 185.841615 34.555004 255.019161 92.015693L905.8286-60.852694c11.697413-11.7056 30.662347-11.7056 42.35976 0C959.885773-49.159374 959.885773-30.189324 948.18836-18.49498zM128.047328 429.799092c0 187.487092 151.984507 339.473645 339.469552 339.473645 187.482999 0 339.469552-151.986553 339.469552-339.473645 0-187.480952-151.986553-339.467505-339.469552-339.467505C280.031834 90.330564 128.047328 242.317117 128.047328 429.799092z"  horiz-adv-x="1024" />

    
    <glyph glyph-name="icon1460188209312" unicode="&#58901;" d="M512-18.711c218.074 0 395.508 177.434 395.508 395.508s-177.434 395.508-395.508 395.508-395.508-177.434-395.508-395.508 177.434-395.508 395.508-395.508zM512 722.868c190.833 0 346.07-155.237 346.07-346.07s-155.237-346.07-346.07-346.07-346.07 155.237-346.07 346.07 155.237 346.07 346.07 346.07zM512 617.811c78.83 0 142.754-63.381 142.754-141.593 0-78.188-63.899-141.567-142.754-141.567s-142.729 63.381-142.729 141.567c0 78.211 63.899 141.593 142.729 141.593zM512 375.117c56.311 0 101.968 45.286 101.967 101.126 0 55.866-45.655 101.126-101.967 101.126s-101.968-45.286-101.967-101.126c0-55.865 45.655-101.126 101.967-101.126zM512 375.117c112.646 0 203.933-90.547 203.933-202.253-14.166 0-27.611 0-40.787 0 0 89.334-73.045 161.786-163.147 161.786-90.102 0-163.147-72.452-163.147-161.786-13.151 0-26.623 0-40.787 0 0 111.706 91.289 202.253 203.933 202.253z"  horiz-adv-x="1024" />

    
    <glyph glyph-name="dianzan3" unicode="&#58896;" d="M889.6 499.2l-281.6 0c25.6 134.4 76.8 300.8-32 352-115.2 51.2-121.6-19.2-134.4-134.4-12.8-121.6-192-249.6-192-249.6l0-563.201 608 0c83.2 38.4 134.4 377.6 160 499.2s-128 96-128 96zM0 467.2l179.201 0 0-569.6-179.201 0 0 569.6z"  horiz-adv-x="1024" />

    
    <glyph glyph-name="dianzan" unicode="&#58897;" d="M1023.219 397.198c0.379-4.71 0.028-9.552-1.249-14.378L929.884-23.64c-1.293-4.87-3.424-9.29-6.126-13.221-9.863-19.692-24.86-37.108-44.798-49.79-21.006-13.35-44.464-19.584-67.638-19.541l0 0.255-591.504 0.248c-2.067-0.307-4.161-0.515-6.316-0.515-2.161 0-4.263 0.208-6.346 0.523l-157.335 0.066c-2.212-0.355-4.462-0.588-6.775-0.588-23.54 0-42.616 19.078-42.616 42.613l0.387 511.61c0 23.538 19.084 42.615 42.624 42.615 1.759 0 3.482-0.137 5.189-0.351l141.427 0.329 0 0.804c130.127 9.314 233.238 115.991 236.918 247.598-0.328 3.703-0.563 7.425-0.563 11.214 0 68.468 55.501 123.977 123.977 123.977 58.84 0 107.996-41.031 120.693-96.008l0.627 0.081c6.979-31.387 10.784-63.969 10.784-97.452 0-51.626-8.814-101.178-24.941-147.291l237.867-0.257c2.19 0 4.328-0.218 6.432-0.541 40.615-1.596 79.732-22.509 102.774-59.648C1019.283 449.472 1025.13 422.934 1023.219 397.198M85.7-20.404l85.224-0.036 0.321 425.779-85.144-0.19L85.7-20.404 85.7-20.404zM932.695 428.562c-8.192 13.209-22.662 20.152-37.164 19.37l0 0.126c-0.035 0-0.074 0-0.108 0l-300.67 0.312c-23.531 0-42.614 19.086-42.614 42.623 0 6.775 1.628 13.163 4.445 18.851l-0.453 0.373c17.025 31.694 29.409 66.243 36.431 102.689l0.533-0.014c0 0 5.667 23.012 5.593 67.148-0.059 34.964-6.432 66.884-6.432 66.884l-0.321 0c0.028 0.621 0.096 1.226 0.096 1.854 0 22.004-17.845 39.848-39.849 39.848-22.015 0-39.858-17.843-39.858-39.848 0-0.92 0.081-1.826 0.139-2.731l-0.556-0.008c0 0 0.679-33.271-5.964-67.775-2.821-14.638-6.783-28.289-10.392-39.102-0.074 0.035-0.137 0.065-0.21 0.101-35.868-109.66-126.06-194.665-238.779-223.299l-0.408-436.435 555.37-0.226c1.876 0 3.71-0.161 5.52-0.406 5.542 0.738 11.018 2.652 16.048 5.851 7.14 4.535 12.323 10.971 15.361 18.232l0.11-0.062 88.662 391.339-0.343 0.102C940.425 405.426 939.301 417.912 932.695 428.562"  horiz-adv-x="1024" />

    
    <glyph glyph-name="back" unicode="&#59047;" d="M620.8 601.6 454.4 601.6 454.4 729.6 96 550.4l358.4-179.2L454.4 505.6l179.2 0c140.8 0 211.2-57.6 211.2-172.8 0-121.6-70.4-179.2-217.6-179.2L211.2 153.6l0-96 416 0c198.4 0 294.4 89.6 294.4 262.4C928 505.6 825.6 601.6 620.8 601.6L620.8 601.6 620.8 601.6zM620.8 601.6"  horiz-adv-x="1024" />

    
    <glyph glyph-name="Back" unicode="&#58887;" d="M511.910541-127.846642C229.168659-127.846642 0 101.347578 0 384.089459 0 666.805781 229.168659 896 511.910541 896s511.936101-229.194219 511.936101-511.910541c0-282.741882-229.194219-511.936101-511.936101-511.936101z m0 959.870604c-246.983801 0-447.934503-200.950703-447.934503-447.934503 0-247.00936 200.950703-448.931333 447.934503-448.931333 247.00936 0 447.934503 201.921973 447.934503 448.931333 0 246.983801-200.925143 447.934503-447.934503 447.934503z m224.286748-479.603025H373.811247l117.753738-117.728178a32.026358 32.026358 0 0 0-45.266305-45.240746l-188.988743 193.972893 188.988743 193.972892a32.026358 32.026358 0 0 0 45.266305-45.240745l-115.760078-115.734518h360.392382a32.000799 32.000799 0 1 0 0-64.001598z"  horiz-adv-x="1024" />

    
    <glyph glyph-name="xunzhang" unicode="&#58918;" d="M1020.104 72.102s-100.438-20.106-202.252-41.176c-67.92-75.624-135.516-151.138-135.516-151.138L536.867 128.367c-8.236-0.54-16.467-1.288-24.813-1.288-8.344 0-16.581 0.748-24.813 1.288l-145.569-248.468s-67.599 75.402-135.516 151.131C104.33 51.995 3.896 72.213 3.896 72.213l158.298 270.276c-25.35 50.915-40.11 108.245-40.11 169.106C122.083 723.904 296.64 896 512.054 896c215.409 0 389.97-172.096 389.97-384.405 0-60.861-14.756-118.088-40.213-169.209l158.293-270.284zM689.93-4.906s48.768 46.208 94.547 90.81a62875.848 62875.848 0 0 1 130.594 37.328l-91.979 157.124c-53.061-69.312-129.211-120.123-217.23-141.613l84.068-143.649zM109.037 123.231s65.564-18.827 130.595-37.328c45.778-44.602 94.551-90.81 94.551-90.81l84.175 143.648c-88.135 21.49-164.285 72.302-217.338 141.613l-91.983-157.123zM512.054 832.897c-175.089 0-317.024-142.257-317.024-317.879 0-175.519 141.935-317.879 317.024-317.879 175.093 0 317.024 142.36 317.024 317.879S687.146 832.897 512.054 832.897z m0-540.242c-122.68 0-222.152 99.468-222.152 222.255 0 122.787 99.472 222.259 222.152 222.259 122.683 0 222.151-99.472 222.151-222.259 0-122.786-99.469-222.255-222.151-222.255z m0 381.09c-87.598 0-158.727-71.128-158.727-158.727 0-87.705 71.021-158.727 158.727-158.727 87.71 0 158.724 71.125 158.724 158.727-0.001 87.598-71.126 158.727-158.724 158.727z"  horiz-adv-x="1024" />

    
    <glyph glyph-name="jiangbei" unicode="&#58905;" d="M925.227 665.738h-93.14V792.349c0 19.074-15.145 34.218-34.695 34.218H226.355c-19.046 0-34.469-15.144-34.469-34.218v-126.611H98.52c-18.822 0-34.217-15.39-34.217-34.218v-190.186c0-54.52 22.003-104.63 57.922-140.802h0.248c31.542-31.54 73.57-53.041 120.502-58.173 51.84-80.173 138.598-135.417 234.669-145.704v-86.285H327.807c-18.82 0-34.47-15.393-34.47-34.469 0-18.572 15.648-34.466 34.47-34.466h368.385c18.824 0 34.694 15.894 34.694 34.466 0 19.076-15.87 34.47-34.694 34.47H546.58v86.284c95.82 10.287 182.853 65.531 234.668 145.704 45.705 5.133 87.032 25.908 118.323 56.471l1.952 1.702c35.919 36.173 58.173 86.282 58.173 140.802V631.52c0 18.826-15.393 34.218-34.469 34.218zM171.613 348.944c-23.957 24.431-38.374 56.444-38.374 92.39V597.05h58.647v-187.506c0.753-29.09 5.133-57.426 13.22-85.534-12.718 6.334-23.957 14.894-33.493 24.933zM653.32 496.483l-75.206-54.408 29.02-88.628c2.376-6.76-1.456-14.06-8.214-16.245-4.199-1.28-8.76-0.457-12.048 2.186l-74.852 54.585-75.392-54.856c-5.665-4.288-13.786-2.923-17.983 2.646-2.47 3.561-3.196 7.852-1.739 11.684l29.031 88.628-75.767 54.771c-5.653 4.199-7.02 12.227-2.728 17.797 2.364 3.562 6.384 5.385 10.403 5.385l93.189-0.094 28.668 88.732c2.28 6.57 9.58 10.498 16.337 8.299 4.019-1.363 6.936-4.561 8.217-8.3l28.658-88.731 93.29 0.094c7.114 0 12.87-5.656 12.87-12.778 0.003-4.468-2.277-8.394-5.754-10.767z m237.441-55.15c0-35.945-14.669-67.959-38.124-92.39l-1.474-1.474c-9.762-9.29-20.526-17.6-32.266-23.458 8.309 28.108 12.466 56.444 13.19 85.534V597.05h58.674v-155.717z"  horiz-adv-x="1024" />

    
    <glyph glyph-name="shouyetianchong" unicode="&#58932;" d="M992.112767 452.883912L603.442067 857.054206c-24.107943 25.037805-56.430614 38.945794-91.000925 38.945794-34.581721 0-66.898686-13.776782-91.012334-38.945794L32.89502 452.883912c-40.138071-41.72397-34.981048-77.766086-28.352219-92.866352 4.763401-10.730488 20.668026-40.001159 66.636272-40.001159h56.961148v-310.904614c0-69.112099 48.620918-134.248042 118.257847-136.986284v-0.125503h75.181869c70.321489 0 93.533799 46.116567 94.611982 113.967934l0.205369 0.131207v214.963443c0 35.243462-5.29964 54.975922 30.736771 54.975923h130.751078c36.025003 0 30.668316-19.612662 30.668316-54.975923l0.045637-133.466502h-0.045637v-76.625151c0-3.56542-0.045637-8.066406 0.068456-13.22343v-0.912747l0.022819-0.017114c0.872815-36.720972 9.754989-104.811935 94.606277-104.811935h75.187575v0.125502c69.665452 2.704014 118.309189 67.857071 118.309188 136.986285v310.904614h56.961148c45.968245 0 61.867166 29.396174 66.636272 40.001158 6.611715 15.094562 11.774443 51.136678-28.232421 92.860648zM352.271072-38.904436a47.867901 47.867901 0 0 0-1.329189-8.802308l1.329189 8.802308z"  horiz-adv-x="1024" />

    
    <glyph glyph-name="shouye" unicode="&#58933;" d="M992.112767 452.883912L603.442067 857.054206c-24.107943 25.037805-56.430614 38.945794-91.000925 38.945794-34.581721 0-66.898686-13.776782-91.012334-38.945794L32.89502 452.883912c-40.138071-41.72397-34.981048-77.766086-28.352219-92.866352 4.763401-10.730488 20.668026-40.001159 66.636272-40.001159h56.961148v-310.904614c0-69.112099 48.620918-134.248042 118.257847-136.986284v-0.125503h75.181869c70.321489 0 93.533799 46.116567 94.611982 113.967934l0.205369 0.131207v214.963443c0 35.243462-5.29964 54.975922 30.736771 54.975923h130.751078c36.025003 0 30.668316-19.612662 30.668316-54.975923l0.045637-133.466502h-0.045637v-76.625151c0-3.56542-0.045637-8.066406 0.068456-13.22343v-0.912747l0.022819-0.017114c0.872815-36.720972 9.754989-104.811935 94.606277-104.811935h75.187575v0.125502c69.665452 2.704014 118.309189 67.857071 118.309188 136.986285v310.904614h56.961148c45.968245 0 61.867166 29.396174 66.636272 40.001158 6.611715 15.094562 11.774443 51.136678-28.232421 92.860648zM965.101146 384h-132.485298v-374.893918c0-35.243462-22.784459-72.991276-58.820871-72.991275h-73.932547c-21.443861 0.878519-26.486791 9.880492-27.410948 25.944847v21.786142c0.034228 2.298983 0.068456 4.655012 0.068456 7.11943v76.625152h-0.068456v133.466502c0 70.606723-22.658956 118.965226-94.720371 118.965226H446.997147c-72.061414 0-94.720371-48.369912-94.720371-118.965226v-239.864336c-1.106706-16.355294-6.760036-25.208945-30.828046-25.208945H250.853416c-35.990774 0.062751-58.729596 37.776337-58.729596 72.985571v374.893918H59.632817c-1.192276 0 0.929862-0.131207 0 0 2.25905 3.844949 14.455638 18.152266 20.810643 24.769685l388.6707 403.907878c11.529142 12.185179 27.941483 19.47575 43.851812 19.338838 15.89892 0.131207 31.261602-7.284866 42.916246-19.338838l388.539493-403.770966"  horiz-adv-x="1024" />

    
    <glyph glyph-name="yonghudianji" unicode="&#58937;" d="M613.475512-125.090975H410.530306c-192.501807 0-344.539079 0-344.539079 99.843549v19.973364c0 187.120111 154.57976 339.331924 344.539079 339.331924h202.939388c189.959319 0 344.544897-152.211813 344.544897-339.331924v-19.973364c-0.034908-99.843549-159.717097-99.843549-344.539079-99.843549zM501.838776 354.089407c-150.832936 0-273.483239 120.904889-273.483239 269.521147 0 148.610441 122.656121 269.480421 273.483239 269.480421s273.483239-120.86998 273.483239-269.480421c0-148.616259-122.685212-269.521147-273.483239-269.521147z"  horiz-adv-x="1024" />

    
    <glyph glyph-name="yonghu" unicode="&#58938;" d="M613.475512-125.090975H410.530306c-192.501807 0-344.539079 0-344.539079 99.843549v19.973364c0 187.120111 154.57976 339.331924 344.539079 339.331924h202.939388c189.959319 0 344.544897-152.211813 344.544897-339.331924v-19.973364c-0.034908-99.843549-159.717097-99.843549-344.539079-99.843549zM410.495398 274.207586c-156.941888 0-284.648076-125.349878-284.648076-279.44674v-19.967546c0-39.964183 164.505352-39.964183 284.648076-39.964182h202.945206c99.45374 0 284.653894 0 284.653894 39.964182v19.967546c0 154.096861-127.712007 279.44674-284.653894 279.44674H410.495398z m91.343378 79.881821c-150.832936 0-273.483239 120.904889-273.483239 269.521147 0 148.610441 122.656121 269.480421 273.483239 269.480421s273.483239-120.86998 273.483239-269.480421c0-148.616259-122.685212-269.521147-273.483239-269.521147zM288.24654 623.610554c0-115.563919 95.817459-209.630145 213.592236-209.630144 117.786414 0 213.598055 94.031317 213.598055 209.630144S619.619372 833.205791 501.838776 833.205791c-117.774778 0-213.592237-94.037136-213.592236-209.595237z"  horiz-adv-x="1024" />

    
    <glyph glyph-name="wenzhang_xuanzhong" unicode="&#59054;" d="M843.551208-61.138196h-663.102416c-30.518061 0-55.258535 24.740474-55.258535 55.258534v779.759324c0 30.518061 24.740474 55.258535 55.258535 55.258534h663.102416c30.518061 0 55.258535-24.740474 55.258535-55.258534v-779.759324c0-30.518061-24.740474-55.258535-55.258535-55.258534z m-509.606487 235.360425h188.288341c16.954137 0 30.699186 13.745049 30.699186 30.699186 0 16.95516-13.745049 30.699186-30.699186 30.699186h-188.288341c-16.95516 0-30.699186-13.744026-30.699185-30.699186 0-16.954137 13.744026-30.699186 30.699185-30.699186z m356.110558 419.555542h-356.110558c-16.95516 0-30.699186-13.744026-30.699185-30.699186 0-16.954137 13.744026-30.699186 30.699185-30.699186h356.110558c16.954137 0 30.699186 13.745049 30.699185 30.699186 0 16.95516-13.745049 30.699186-30.699185 30.699186z m0-180.101891h-356.110558c-16.95516 0-30.699186-13.744026-30.699185-30.699186 0-16.954137 13.744026-30.699186 30.699185-30.699186h356.110558c16.954137 0 30.699186 13.745049 30.699185 30.699186 0 16.95516-13.745049 30.699186-30.699185 30.699186z"  horiz-adv-x="1024" />

    
    <glyph glyph-name="dengpao" unicode="&#58892;" d="M159.663 503.232c0 96.803 34.411 179.385 102.761 248.659C330.786 821.162 413.814 855.569 511.08 855.569c97.262 0 180.29-34.411 249.581-103.678 69.271-69.276 103.678-151.856 103.678-248.659 0-13.301-0.459-27.066-1.845-40.375-2.289-2.292-1.83-6.875-1.83-9.167l-5.506-33.039c-2.297 0-1.83-3.21-1.83-5.506-3.676-12.381-7.344-23.39-11.013-33.03v-1.838s-0.459-0.454-1.838-1.83c-5.044-13.306-9.637-25.239-14.685-34.865 0-1.379-0.459-1.842-1.835-1.842-5.969-12.381-12.843-23.86-20.188-34.865-7.333-11.013-15.14-22.026-23.86-33.03 0 0-0.459-0.462-0.906-0.929l-0.921-0.898c-7.337-8.724-16.053-16.981-25.686-25.706 0 0-0.917-0.454-2.755-1.83-4.589-3.206-5.047-5.965-10.103-11.009-2.289 0-5.491-1.372-5.491-3.676l-17.44-13.748-3.673-2.751-2.751-1.845c-11.002-8.716-18.816-18.357-23.86-29.362-5.044-11.009-9.626-18.804-14.673-23.856-5.047-5.037-14.219-7.337-27.532-7.337H379.864c-13.301 0-22.477 2.304-27.52 7.337-5.052 5.056-10.103 12.847-15.606 23.856-5.506 11.005-13.301 20.646-22.931 29.362-1.383 0-2.292 0.462-3.676 1.845l-2.751 2.751-17.433 13.748-5.506 3.676-7.333 7.329s-1.842 1.845-5.506 5.51l-25.701 25.706s-0.451 0.443-0.91 0.898l-0.921 0.929c-16.978 22.018-31.655 43.589-44.036 67.895-1.383 0-1.845 0.459-1.845 1.842-5.044 9.626-9.63 21.559-14.673 34.865-1.379 0-1.842 0.459-1.842 1.83v1.838c-3.661 9.641-7.337 20.65-11.005 33.03 0 0-0.459 0.921-0.921 2.751l-0.921 2.751c-2.292 9.633-4.123 20.646-5.503 33.039 0 2.292-1.835 6.875-1.835 9.167-1.364 13.313-1.823 27.077-1.823 40.379z m207.363-411.061h293.62c16.974 0 29.355-12.381 29.355-29.362 0-16.97-12.381-29.355-29.355-29.355h-293.62c-16.978 0-29.366 12.385-29.366 29.355 0 16.981 12.388 29.362 29.366 29.362z m12.84-117.446h266.092l-108.275-55.041a66.927 66.927 0 0 0-53.218 0l-104.598 55.041zM543.193 679.4c35.331 0 68.817-14.223 100.017-43.126 31.197-28.896 46.791-64.686 46.791-107.354 0-14.677 12.388-29.362 29.362-29.362 16.978 0 29.362 14.685 29.362 29.362 0 63.773-20.642 114.24-62.401 152.31-41.743 38.082-89.455 56.898-143.132 56.898-16.974 0-29.362-12.385-29.362-29.362s12.388-29.366 29.362-29.366z"  horiz-adv-x="1024" />

    
    <glyph glyph-name="toupiao" unicode="&#58988;" d="M236.288-57.408H98.432A34.432 34.432 0 0 0 64-22.976V527.296c0 18.944 15.424 34.368 34.432 34.368h137.856c19.072 0 34.496-15.36 34.496-34.368v-550.272a34.432 34.432 0 0 0-34.496-34.432m344.64 0H443.072a34.432 34.432 0 0 0-34.432 34.432V733.632c0 18.944 15.36 34.368 34.432 34.368h137.856c19.008 0 34.432-15.36 34.432-34.368V-23.04a34.432 34.432 0 0 0-34.432-34.432m344.576 0h-137.792a34.432 34.432 0 0 0-34.496 34.432V320.896c0 19.008 15.424 34.432 34.496 34.432h137.792c19.072 0 34.496-15.424 34.496-34.432v-343.872a34.432 34.432 0 0 0-34.496-34.432"  horiz-adv-x="1024" />

    
    <glyph glyph-name="notice" unicode="&#58894;" d="M78.771 265.846h188.022l284.593-229.218v692.618l-276.322-227.092h-196.923c0.551 0 0.63-236.308 0.63-236.308zM0.002 502.154c0 43.481 35.367 78.769 78.139 78.769h168.724l383.291 315.077v-1024l-391.089 315.077h-160.768c-0-0-0.001-0-0.001-0-43.242 0-78.297 35.055-78.297 78.297 0 0.166 0.001 0.332 0.002 0.498l-0 236.282zM815.106 648.507l169.748 164.391-54.823 56.556-169.748-164.391zM759.337 159.665l164.47-169.748 56.556 54.823-164.391 169.748zM787.064 384l236.308-3.781 1.26 78.769-236.308 3.781z"  horiz-adv-x="1024" />

    
    <glyph glyph-name="wodexingqiuxuanzhong" unicode="&#58924;" d="M1010.124 450.215c-5.392 28.898-29.103 51.516-70.456 67.236-12.649 4.812-26.849-1.515-31.676-14.117-4.833-12.609 1.511-26.735 14.179-31.55 23.265-8.844 37.731-19.962 39.702-30.509 8.43-45.186-154.575-143.26-429.189-194.061-124.432-23.024-243.675-30.899-335.726-22.204-88.261 8.345-131.302 31.039-134.81 49.82-2.069 11.112 8.403 27.525 28.744 45.027 10.256 8.826 11.381 24.273 2.515 34.476-8.866 10.217-24.356 11.336-34.616 2.503-35.363-30.446-50.468-61.034-44.892-90.93 9.027-48.405 70.719-79.377 178.418-89.562 4.288-0.41 8.711-0.726 13.106-1.057 66.833-100.785 181.478-167.35 311.821-167.35 181.052 0 331.942 128.318 366.191 298.613 84.193 43.139 136.14 92.992 126.689 143.665zM200.522 263.362c23.04-2.161 48.299-3.275 75.073-3.275 75.227 0 161.758 8.651 250.216 25.023 140.483 25.977 235.745 61.338 290.914 86.414 32.465 14.749 55.978 28.203 72.688 39.437-15.815 190.99-176.339 341.101-372.167 341.101-206.308 0-373.554-166.576-373.554-372.06 0-38.815 6.103-76.18 17.201-111.332 11.458-2.049 24.59-3.886 39.629-5.308z m458.795 301.252c9.17 9.924 24.692 10.559 34.676 1.41 26.481-24.301 47.34-53.15 62-85.744a260.556 260.556 0 0 0 16.702-50.357c2.917-13.171-5.44-26.22-18.677-29.134a24.776 24.776 0 0 0-5.312-0.579c-11.263 0-21.408 7.772-23.942 19.188a211.4 211.4 0 0 1-13.572 40.896c-11.92 26.512-28.891 49.985-50.462 69.769-9.961 9.155-10.598 24.622-1.413 34.551z m-134.889 47.357c1.858 13.371 14.202 22.749 27.671 20.855a262.368 262.368 0 0 0 66.073-18.112c12.484-5.264 18.317-19.612 13.036-32.046-3.962-9.317-13.052-14.924-22.606-14.924-3.196 0-6.432 0.627-9.554 1.95a213.18 213.18 0 0 1-53.675 14.707c-13.429 1.858-22.809 14.196-20.945 27.57z"  horiz-adv-x="1075" />

    
    <glyph glyph-name="xunzhang1" unicode="&#58939;" d="M866.39 593.9a384.62 384.62 0 1 1-571-467.58V-39.4a24 24 0 0 1 28.13-23.6L512-19.71l186.9-43.79a24 24 0 0 1 28.27 23.62V125.25A385.06 385.06 0 0 1 866.39 593.9zM679.12-11.16l-162.85 39.45a24 24 0 0 1-8.45 0l-164.48-39.07v109.2q9.33-4.55 18.93-8.64a385.81 385.81 0 0 1 299.44 0q8.82 3.73 17.4 7.88zM750 206.14a336.63 336.63 0 1 0 98.6 238 334.42 334.42 0 0 0-98.6-238zM726.92 527.74l-133.63 19.42-59.77 121.09a24 24 0 0 1-43 0l-59.81-121.09-133.63-19.42a24 24 0 0 1-13.3-40.94l96.7-94.26-22.83-133.1a24 24 0 0 1 34.82-25.3L512 297l119.53-62.84a24 24 0 0 1 34.82 25.3l-22.83 133.1 96.7 94.26a24 24 0 0 1-13.3 40.94zM601 418.11a24 24 0 0 1-6.9-21.24l16.74-97.6-87.65 46.08a24 24 0 0 1-22.34 0l-87.65-46.08 16.74 97.6a24 24 0 0 1-6.9 21.24l-70.94 69.12 98 14.24a24 24 0 0 1 18.07 13.13L512 603.4l43.83-88.8a24 24 0 0 1 18.07-13.13l98-14.24z"  horiz-adv-x="1024" />

    
    <glyph glyph-name="pinglun" unicode="&#59070;" d="M837.412 844.462h-663.029c-85.421 0-155.382-75.658-155.382-162.706v-429.547c0-86.235 67.521-143.996 153.756-143.996h61.015v-183.859l214.772 183.859h398.633c85.421 0 153.756 57.761 153.756 143.996v429.547c0 87.050-78.1 162.706-163.519 162.706zM939.107 252.208c0-56.947-46.371-82.979-91.927-82.979h-421.41l-17.084-14.643-113.083-97.626v111.455h-122.030c-45.555 0-91.927 26.033-91.927 82.979v430.359c0 53.691 43.93 100.878 93.557 100.878h662.218c52.879 0 102.507-48.812 102.507-100.878v-429.547zM294.786 529.622c-18.71 10.578-42.305 10.578-61.015 0s-30.914-30.914-30.914-52.879 11.388-42.305 30.914-52.879c18.71-10.578 42.305-10.578 61.015 0s30.914 30.914 30.914 52.879c0 21.151-11.388 41.491-30.914 52.879zM540.474 529.622c-18.71 10.578-42.305 10.578-61.015 0s-30.914-30.914-30.914-52.879c0-34.17 27.66-61.015 61.015-61.015 34.17 0 61.015 27.66 61.015 61.015 0.813 21.151-11.388 41.491-30.099 52.879zM786.163 529.622c-18.71 10.578-42.305 10.578-61.015 0s-30.914-30.914-30.914-52.879 11.388-42.305 30.914-52.879c18.71-10.578 42.305-10.578 61.015 0s30.914 30.914 30.914 52.879c-0.813 21.151-12.202 41.491-30.914 52.879z"  horiz-adv-x="1024" />

    
    <glyph glyph-name="shouji" unicode="&#58948;" d="M755.2 844.8h-486.4c-43.52 0-76.8-33.28-76.8-76.8v-768c0-43.52 33.28-76.8 76.8-76.8h486.4c43.52 0 76.8 33.28 76.8 76.8v768c0 43.52-33.28 76.8-76.8 76.8zM268.8 793.6h486.4c15.36 0 25.6-10.24 25.6-25.6v-576h-537.6v576c0 15.36 10.24 25.6 25.6 25.6zM755.2-25.6h-486.4c-15.36 0-25.6 10.24-25.6 25.6v140.8h537.6v-140.8c0-15.36-10.24-25.6-25.6-25.6zM460.8 64c-0-28.277 22.923-51.2 51.2-51.2s51.2 22.923 51.2 51.2c0 0 0 0 0 0 0 28.277-22.923 51.2-51.2 51.2-28.277 0-51.2-22.923-51.2-51.2 0-0 0-0 0-0z"  horiz-adv-x="1024" />

    
    <glyph glyph-name="camera_fill" unicode="&#59111;" d="M528 512c88.224 0 160-71.776 160-160s-71.776-160-160-160-160 71.776-160 160 71.776 160 160 160m320 105.728a62.688 62.688 0 0 1-15.968 2.24h-104.832L704.704 672l-6.688 15.488C686.016 715.136 654.272 736 624.128 736h-192.288c-30.144 0-61.888-20.864-73.856-48.544L351.296 672l-22.496-52H223.968c-5.536 0-10.848-0.96-15.968-2.272a64.16 64.16 0 0 1-48-62.08v-439.36c0-29.888 20.448-54.816 48-62.016 5.12-1.312 10.432-2.272 15.968-2.272h608.064c5.536 0 10.848 0.96 15.968 2.24a64.224 64.224 0 0 1 48 62.048v439.36c0 29.92-20.48 54.912-48 62.08"  horiz-adv-x="1024" />

    
    <glyph glyph-name="camera" unicode="&#59112;" d="M224 116.288l-0.128 439.712h146.976l45.856 106.048c1.856 4.256 10.496 9.952 15.136 9.952h192.288c4.768 0 13.248-5.6 15.136-9.92l45.856-106.08 146.88-0.32 0.032-439.68L224 116.32zM832.032 620h-104.832l-29.184 67.52C686.016 715.104 654.272 736 624.128 736h-192.288c-30.144 0-61.888-20.864-73.856-48.544l-29.184-67.456H223.968A64.224 64.224 0 0 1 160 555.68v-439.36c0-35.488 28.672-64.32 63.968-64.32h608.064A64.192 64.192 0 0 1 896 116.32v439.36c0 35.456-28.704 64.32-63.968 64.32zM528 256c-52.928 0-96 43.072-96 96s43.072 96 96 96 96-43.072 96-96-43.072-96-96-96m0 256c-88.224 0-160-71.776-160-160s71.776-160 160-160 160 71.776 160 160-71.776 160-160 160"  horiz-adv-x="1024" />

    
    <glyph glyph-name="huojiang" unicode="&#58886;" d="M657.12 468.47a32.66 32.66 0 0 0-32.67 32.67V693.77a32.67 32.67 0 0 0 65.35 0v-192.63a32.66 32.66 0 0 0-32.68-32.67zM875.94 742h-59.67A89.44 89.44 0 0 1 727 831H298.08a89.44 89.44 0 0 1-89.27-89H148c-46.82 0-85-40.09-85-89.33v-109.15c0-97.35 64.69-205.75 157.29-206.52C255.78 230.4 369 153.58 480 140.57V1H317.12a32.5 32.5 0 1 1 0-65h388.67a32.5 32.5 0 1 1 0 65H545V140.57c110 13 223.63 89.84 259.51 196.44C896.78 338.26 961 446.38 961 543.52V652.67c0 49.24-38.23 89.33-85.06 89.33zM128 543.52V652.67c0 13 9.43 24.33 20 24.33h61s-0.33-272.22-0.32-273.17C163.22 414.85 128 484.79 128 543.52zM749.58 406.7c0-114.17-129.34-202.7-237.11-202.7C402.23 204 274 292.53 274 406.7v335a24.41 24.41 0 0 0 24.08 24.3H725c13.19 0 24.93-10.93 24.93-23.43-0.05-2.57-0.35-255.34-0.35-335.87zM895 543.52c0-58.4-34.25-127.89-79.34-139.5 0 0.89 0.4 192 0.51 273h59.78c10.61 0 19.06-11.34 19.06-24.33v-109.17z"  horiz-adv-x="1024" />

    
    <glyph glyph-name="erweimazhanwei" unicode="&#59024;" d="M1024 457.144889V896h-438.855111v-146.285037H438.85037V896H0v-438.855111h146.285037v-146.289778H0V-128h438.855111v146.285037h146.289778v146.285037H438.85037v146.285037H292.570074V457.14963h146.285037V603.429926h146.289778v-146.285037h146.285037v-146.289778h146.285037V457.14963H1024zM365.714963 237.714963v-292.570074H73.144889v292.570074h292.570074z m0 292.570074H73.144889V822.855111h292.570074v-292.570074z m292.570074 0V822.855111h292.570074v-292.570074h-292.570074zM585.14963 457.14963H438.85037v-146.289778h146.289778V457.14963z m146.285037-146.289778h-146.285037v-146.285037h146.285037v146.285037z m0-292.570074h146.285037v146.285037h-146.285037v-146.285037zM1024-128v146.285037h-146.285037V-128H1024z m0 292.570074v146.285037h-146.285037v-146.285037H1024zM585.144889-128h146.285037v146.285037h-146.285037V-128zM283.429926 740.570074h-128v-128h128v128z m0-585.140148h-128v-128h128v128z m457.140148 457.140148h128v128h-128v-128z"  horiz-adv-x="1024" />

    
    <glyph glyph-name="gonggao" unicode="&#58946;" d="M342.4 512H128v-256h214.4L576 69.2V698.8L342.4 512zM64 576h256L640 832v-896L320 192H64V576z m640-256h256v64H704v-64z m16.8-159.5l181-181 45.3 45.3-181 181-45.3-45.3z m33.9 343.9l181 181-45.3 45.3-181-181 45.3-45.3z"  horiz-adv-x="1024" />

    
    <glyph glyph-name="tupianzu" unicode="&#58943;" d="M1081.624727 752.196204H302.916849c-49.712078 0-89.96338-40.251302-89.96338-89.96338V3.246766c0-49.712078 40.251302-89.96338 89.96338-89.963379h778.879892c49.712078 0 89.96338 40.251302 89.96338 89.963379V662.232824c-0.172014 49.712078-40.423316 89.96338-90.135394 89.96338M302.744835 692.163279h778.879892c16.513355 0 29.930455-13.417101 29.930455-29.930455V309.431883c-48.335965 39.563245-131.934823 93.059634-232.391063 93.059634-92.543591 0-183.883084-71.729884-272.126323-141.051571-67.601545-53.15236-137.611288-108.196876-186.63531-108.196875-68.805644 0-127.806484 50.572148-147.760121 69.837729V662.232824c0.172014 16.513355 13.589115 29.930455 30.10247 29.930455m778.879892-718.846968H302.744835c-16.513355 0-29.930455 13.417101-29.930456 29.930455v142.25567c35.950949-25.458088 87.89921-52.120275 147.760121-52.120276 69.837729 0 144.491853 58.656812 223.618344 120.92592 80.33059 63.129179 163.241391 128.322526 235.143289 128.322526 128.838569 0 230.842936-113.357299 231.875021-114.561397l0.516042 0.344028V3.246766c0-16.513355-13.417101-29.930455-30.102469-29.930455m-569.366706 359.165463c66.225433 0 120.065849 53.668402 120.065849 120.065849 0 66.225433-53.668402 120.065849-120.065849 120.065849-66.225433 0-120.065849-53.668402-120.065849-120.065849 0-66.397447 53.668402-120.065849 120.065849-120.065849M512.602049 512.408534c33.026709 0 59.688896-26.662187 59.688897-59.688897 0-33.026709-26.662187-59.688896-59.688897-59.688896-33.026709 0-59.688896 26.662187-59.688896 59.688896 0 33.026709 26.662187 59.688896 59.688896 59.688897m0 0M1217.687888 62.763649h-96.843944v51.08819h96.843944c24.770032 0 45.067697 20.125651 45.067697 44.895683V761.65698c0 24.770032-20.125651 44.895683-45.067697 44.895683h-844.589282c-24.770032 0-44.895683-20.125651-44.895683-44.895683v-59.688897H276.942718V761.65698c0 52.980346 43.003528 95.983874 95.983874 95.983873h844.589282c52.980346 0 95.983874-43.003528 95.983874-95.983873v-602.909458c0.172014-52.980346-42.831514-95.983874-95.81186-95.983873z"  horiz-adv-x="1448" />

    
    <glyph glyph-name="zhiding" unicode="&#59023;" d="M904.797108 721.01157H119.201869c-23.248494 0-42.086537 18.837021-42.086537 42.086537s18.837021 42.086537 42.086537 42.086538h785.595239c23.235191 0 42.086537-18.837021 42.086537-42.086538s-18.851347-42.086537-42.086537-42.086537zM897.317763 240.760668c-10.768251 0-21.536502 4.109598-29.756721 12.329817L521.925047 598.739782c-3.616364 3.589758-9.699919 3.603061-13.316284-0.013303l-345.621668-345.635994c-16.439414-16.439414-43.073005-16.439414-59.512419 0-16.439414 16.426111-16.439414 43.073005 0 59.512418L449.110671 658.252201c36.496216 36.46961 95.858208 36.496216 132.327818 0l345.635995-345.649298c16.439414-16.439414 16.439414-43.086307 0-59.512418-8.221242-8.220219-18.989493-12.329816-29.756721-12.329817zM512.007163-37.183622c-23.248494 0-42.086537 18.837021-42.086537 42.086538V622.811014c0 23.248494 18.837021 42.086537 42.086537 42.086537s42.086537-18.837021 42.086537-42.086537V4.901893c-0.001023-23.248494-18.838044-42.085514-42.086537-42.085515z"  horiz-adv-x="1024" />

    
    <glyph glyph-name="jiaodianshizi" unicode="&#58902;" d="M927.454 405.761c-0.138 0-0.27-0.009-0.407-0.012h-53.708c-9.927 183.854-156.155 331.468-339.422 343.575V799.243c0 12.057-9.775 21.832-21.834 21.832-12.057 0-21.832-9.775-21.832-21.832v-49.615c-185.812-9.691-334.767-158.592-344.545-344.381h-48.97c-12.058 0-21.833-9.775-21.833-21.833 0-12.057 9.774-21.833 21.832-21.833h49.253c12.043-183.57 160.04-330.024 344.268-339.63v-53.18h0.017c0-0.068-0.006-0.138-0.006-0.207 0-12.058 9.775-21.833 21.833-21.833 12.059 0 21.833 9.775 21.833 21.833 0 0.137-0.008 0.271-0.011 0.406v53.285c182.018 12.028 327.503 157.723 339.198 339.83h54.124v0.017c0.069 0 0.14-0.006 0.209-0.006 12.056 0 21.832 9.773 21.832 21.831 0.001 12.06-9.774 21.834-21.83 21.834zM490.251 676.504v-51.065c-117.341-9.313-210.952-102.873-220.348-220.191h-51.077c9.593 145.467 125.932 261.75 271.425 271.256z m0.005-581.427c-143.908 9.4-259.3 123.262-271.085 266.505h51.153c11.508-115.088 104.177-206.254 219.932-215.44v-51.065zM512.09 274.49c-12.058 0-21.833-9.774-21.833-21.832v-64.085c-92.394 8.924-166.225 81.29-177.398 173.007h67.762v0.018c0.07 0 0.138-0.006 0.208-0.006 12.058 0 21.833 9.773 21.833 21.833 0 12.057-9.774 21.832-21.833 21.832-0.137 0-0.271-0.008-0.407-0.01h-68.086c9.158 93.958 83.935 168.68 177.917 177.759v-67.647h0.015c0-0.07-0.005-0.138-0.005-0.208 0-12.058 9.775-21.833 21.833-21.833 12.059 0 21.833 9.775 21.833 21.833 0 0.137-0.008 0.271-0.01 0.407V582.45c91.414-11.217 163.573-84.68 172.777-176.7h-63.334c-12.058 0-21.833-9.774-21.833-21.832 0-12.056 9.774-21.833 21.833-21.833h62.912c-10.762-90.259-82.185-161.886-172.352-172.954v63.527c0.002 12.058-9.773 21.832-21.832 21.832z m21.834-179.04v51.146c113.536 11.438 203.75 101.863 214.871 215.49h51.153C788.53 220.307 675.621 107.196 533.923 95.45z m215.205 310.3c-9.486 115.38-100.428 207.678-215.21 219.237v51.144c142.944-11.845 256.584-126.85 266.299-270.382h-51.09v0.001z"  horiz-adv-x="1024" />

    
    <glyph glyph-name="triangle-arrow-d" unicode="&#59269;" d="M273.6 465l212.9-212.9c14.1-14.1 36.9-14.1 50.9 0l213 212.9c22.7 22.7 6.6 61.5-25.5 61.5H299.1c-32.1 0-48.1-38.8-25.5-61.5z"  horiz-adv-x="1024" />

    
    <glyph glyph-name="return-top-b-o" unicode="&#59325;" d="M886 832H138c-19.9 0-36-16.1-36-36s16.1-36 36-36h748c19.9 0 36 16.1 36 36s-16.1 36-36 36zM512 760L138 386c-14.1-14.1-14.1-36.9 0-50.9 14.1-14.1 36.9-14.1 50.9 0L476 622.2V-26c0-19.9 16.1-36 36-36s36 16.1 36 36V622.2L835.1 335c7-7 16.2-10.5 25.5-10.5S879 328 886 335c14.1 14.1 14.1 36.9 0 50.9L512 760z"  horiz-adv-x="1024" />

    
    <glyph glyph-name="chart-o" unicode="&#59376;" d="M656 799.9c62.4-21.6 119.5-57.2 166.8-104.5 47.3-47.2 83-104.1 104.8-166.4H656V799.9m-36.1 83.8c-19.3 0-35.9-15.7-35.9-36V457h391.5c23.2 0 40.3 21.6 35.1 44.2-44.3 189-193.2 337.7-382.3 381.5-2.9 0.7-5.7 1-8.4 1zM440 781.6V312h469.6c-15.4-85.8-58.3-164.3-123.1-224.4C711.7 18.200000000000045 614.2-20 512-20c-54.6 0-107.5 10.7-157.2 31.7-48.1 20.3-91.3 49.5-128.4 86.6-37.1 37.1-66.3 80.3-86.6 128.4C118.7 276.5 108 329.4 108 384c0 102.2 38.2 199.7 107.6 274.6 60.1 64.7 138.6 107.6 224.4 123m36.1 77c-1 0-1.9 0-2.9-0.1C228.5 838.7 36 633.8 36 384c0-262.9 213.1-476 476-476 249.8 0 454.7 192.5 474.4 437.2 1.7 20.9-14.9 38.8-35.9 38.8H512V822.5c0 20-16.2 36.1-35.9 36.1z"  horiz-adv-x="1024" />

    
    <glyph glyph-name="chart" unicode="&#59377;" d="M1010.6 501.2c-44.3 189-193.2 337.7-382.3 381.5-2.9 0.7-5.7 1-8.4 1-19.3 0-35.9-15.7-35.9-36V457h391.5c23.2 0 40.3 21.6 35.1 44.2zM950.5 384H512V822.5c0 20-16.2 36.1-35.9 36.1-1 0-1.9 0-2.9-0.1C228.5 838.7 36 633.8 36 384c0-262.9 213.1-476 476-476 249.8 0 454.7 192.5 474.4 437.2 1.7 20.9-14.9 38.8-35.9 38.8z"  horiz-adv-x="1024" />

    
    <glyph glyph-name="jiangbei2" unicode="&#58880;" d="M982.1609710933333 704.5548782933333L982.1609710933333 704.5548782933333l-105.97413546666667 0L876.1868356266668 848.6107761777778c0 21.701295217777776-17.23040199111111 38.93169834666666-39.47425905777778 38.93169834666666L186.9998432711111 887.5424745244444c-21.673352533333333 0-39.21811456-17.23040199111111-39.21811456-38.93169834666666l0-144.05589788444442-106.23028110222221 0c-21.414879004444444 0-38.93169834666666-17.510997333333332-38.93169834666666-38.93169834666666l0-216.3900575288889c0-62.032476159999995 25.034672355555553-119.04451242666667 65.90259313777777-160.20117731555555l0.2864162133333333 0c35.88473742222222-35.88473742222222 83.70233571555556-60.34890524444444 137.1003995022222-66.18784540444445 58.98202339555555-91.21902478222223 157.69794332444445-154.07465699555556 267.00079900444445-165.77931491555555l0-98.17219413333332L302.42921927111115-41.10740935111107c-21.413715057777775 0-39.21811456-17.51449031111111-39.21811456-39.21811456 0-21.130790684444445 17.803235555555556-39.21462158222222 39.21811456-39.21462158222222l419.1403975111111 0c21.417208035555557 0 39.47425905777778 18.083830897777776 39.47425905777778 39.21462158222222 0 21.70362424888889-18.05705216 39.21811456-39.47425905777778 39.21811456L551.3438583466667-41.10740935111107l0 98.17219413333332c109.02342428444445 11.704657919999999 208.04671829333336 74.5602912711111 267.00079900444445 165.77931491555555 52.0044032 5.840104106666667 99.02329400888888 29.477621759999998 134.62510819555555 64.25162296888888l2.2203107555555555 1.9362224355555557c40.87024867555556 41.15666602666667 66.18900935111111 98.16986624 66.18900935111111 160.20117731555555L1021.3790856533333 665.6231799466666C1021.3790856533333 687.0427158755556 1003.8645953422222 704.5548782933333 982.1609710933333 704.5548782933333L982.1609710933333 704.5548782933333zM124.71471559111103 344.1135798044445L124.71471559111103 344.1135798044445c-27.253818026666664 27.794051982222225-43.661063964444445 64.22135125333334-43.661063964444445 105.11954261333334L81.05365048888888 626.4050653866667l66.72807822222222 0 0-213.34076871111114c0.8569207466666666-33.097415111111104 5.840104106666667-65.33441649777778 15.040362951111108-97.31876636444443C148.35223324444445 322.9525174044444 135.56478065777782 332.69184512000004 124.71471559111103 344.1135798044445L124.71471559111103 344.1135798044445zM797.7820421688889 415.5686957511111L797.7820421688889 415.5686957511111l0-2.7628726044444445c-0.8534277688888889-43.661063964444445-12.24721976888889-87.0624915911111-32.26727310222222-125.45395598222221l-0.5705045333333333-1.6532992c-49.497675093333335-92.07361649777776-147.41139683555556-152.13843455999998-253.1014439822222-152.13843455999998-105.65977656888889 0-203.57582506666668 60.06481692444444-252.53093944888886 152.13843455999998l-1.1095734044444445 1.6532992c-20.563779128888886 39.78745514666666-31.157699697777776 82.90712234666667-31.700261546666663 128.21682858666665l0 0.28408831999999995 0 3.3333771377777777L226.50204615111113 809.1097383822223 797.7820421688889 809.1097383822223 797.7820421688889 415.5686957511111 797.7820421688889 415.5686957511111zM942.9463495111111 449.23312355555555L942.9463495111111 449.23312355555555c0-40.898192497777785-16.69016917333333-77.3254917688889-43.37697678222222-105.11954261333334l-1.6777489066666664-1.6800779377777777c-11.106210702222223-10.567141831111112-23.35343047111111-20.023546311111108-36.713715484444435-26.686806471111108 9.45640448 31.984349866666665 14.183442204444445 64.22135125333334 15.010092373333332 97.31876636444443l0 1.9606732799999997L876.1879995733334 626.4050653866667l66.75834993777778 0L942.9463495111111 449.23312355555555 942.9463495111111 449.23312355555555zM558.5531733333333 538.6614613333334l-32.606082844444444 100.95718855111112c-1.4576969955555557 4.253170346666667-4.777102222222222 7.89275648-9.349289528888887 9.442432568888888-7.687840426666667 2.498577066666667-15.993920853333332-1.9664941511111111-18.58796999111111-9.442432568888888l-32.61772572444444-100.95718855111112-106.02885802666667 0.10711495111111112c-4.572186168888889 0-9.14553742222222-2.0747741866666667-11.836223715555555-6.126520319999999-4.880725333333333-6.338422328888888-3.3275551288888887-15.473480817777778 3.10401024-20.24941909333333l86.20673479111112-62.31772842666667-33.031050808888885-100.83843071999999 0 0c-1.6614491022222222-4.360285297777778-0.8289780622222221-9.242174577777776 1.978137031111111-13.293920711111111 4.777102222222222-6.338422328888888 14.01578382222222-7.891591395555555 20.46132110222222-3.0108672l85.77943779555555 62.416693475555554 85.16236174222222-62.10931939555555c3.7432081066666663-3.0073742222222224 8.933635413333333-3.9446311822222224 13.709573688888888-2.4869341866666668 7.687840426666667 2.4869341866666668 12.049289671111111 10.795343644444443 9.346960497777777 18.48318407111111l-33.01940792888889 100.83843071999999 85.56753578666667 61.90440334222222c3.956274062222222 2.7023291733333332 6.550324337777778 7.167400391111111 6.550324337777778 12.249548799999998l0 0c0 8.104657351111111-6.550324337777778 14.538551751111111-14.64333880888889 14.538551751111111L558.5531733333333 538.6614613333334zM561.4674033777777 467.52652743111116L561.4674033777777 467.52652743111116c-5.200906239999999-3.837516231111111-7.062613333333333-10.591591537777777-5.200906239999999-16.30245888l22.22406428444445-68.33946282666666-57.94929322666666 42.273224248888894c-5.18926336 3.9469602133333335-12.249548799999998 3.839845262222222-17.23855303111111 0l0 0-57.85265720888889-42.273224248888894 22.22755726222222 68.33946282666666c2.1783961599999997 6.231307377777777-0.4156529777777777 13.078526862222223-5.709703395555556 16.610998044444443l-57.53364024888889 41.646834346666665 71.65653902222222-0.20375210666666665c6.751747413333334 0 12.676844657777776 4.777102222222222 14.122898773333333 11.115524551111111l21.8107392 67.29625372444444 22.026134186666663-68.23234673777777c2.071281208888889-6.338422328888888 7.677361493333334-10.071152640000001 13.910996764444443-10.071152640000001l0-0.10711495111111112 71.55990300444444 0.20375210666666665L561.4674033777777 467.52652743111116 561.4674033777777 467.52652743111116z"  horiz-adv-x="1024" />

    
    <glyph glyph-name="menu" unicode="&#58890;" d="M832.2 631.4H192.3c-35.2 0-64 28.8-64 64s28.8 64 64 64h639.8c35.2 0 64-28.8 64-64 0.1-35.2-28.7-64-63.9-64zM832.2 318.1H196.1c-35.2 0-64 28.8-64 64s28.8 64 64 64h636.1c35.2 0 64-28.8 64-64s-28.8-64-64-64zM832.2-0.8999999999999773H192.3c-35.2 0-64 28.8-64 64s28.8 64 64 64h639.8c35.2 0 64-28.8 64-64 0.1-35.2-28.7-64-63.9-64z"  horiz-adv-x="1024" />

    
    <glyph glyph-name="tupian1" unicode="&#58888;" d="M915.576471 817.694118H108.423529C57.223529 817.694118 15.058824 775.529412 15.058824 724.329412v-683.670588c0-51.2 42.164706-93.364706 93.364705-93.364706h807.152942c51.2 0 93.364706 42.164706 93.364705 93.364706V724.329412c0 51.2-42.164706 93.364706-93.364705 93.364706z m-807.152942-60.235294h807.152942c18.070588 0 30.117647-15.058824 30.117647-30.117648v-364.423529c-51.2 42.164706-135.529412 96.376471-240.941177 96.376471-96.376471 0-189.741176-75.294118-283.105882-147.576471-69.270588-54.211765-141.552941-111.435294-192.752941-111.435294-72.282353 0-132.517647 51.2-153.6 72.282353v451.764706c3.011765 18.070588 15.058824 33.129412 33.129411 33.129412z m807.152942-746.917648H108.423529c-18.070588 0-30.117647 15.058824-30.117647 30.117648v147.57647c36.141176-27.105882 90.352941-54.211765 153.6-54.211765 72.282353 0 150.588235 60.235294 231.905883 126.494118 84.329412 66.258824 168.658824 132.517647 243.952941 132.517647 132.517647 0 237.929412-117.458824 240.941176-117.458823v-231.905883c-3.011765-18.070588-15.058824-33.129412-33.129411-33.129412zM325.270588 384c69.270588 0 123.482353 54.211765 123.482353 123.482353s-54.211765 123.482353-123.482353 123.482353-123.482353-54.211765-123.482353-123.482353S256 384 325.270588 384z m0 186.729412c33.129412 0 63.247059-27.105882 63.247059-63.247059 0-33.129412-27.105882-63.247059-63.247059-63.247059-33.129412 0-63.247059 27.105882-63.247059 63.247059 3.011765 36.141176 30.117647 63.247059 63.247059 63.247059z"  horiz-adv-x="1024" />

    
    <glyph glyph-name="xunzhang2" unicode="&#58898;" d="M487.035 725.054z m26.97-58.163c-218.45 0-395.54-177.935-395.54-397.44S295.544-128 514.005-128s395.529 177.947 395.529 397.44S732.443 666.89 514.005 666.89z m203.381-362.003l-77.991-76.385 18.41-107.882c6.18-36.199-14.4-52.041-47.398-34.604l-96.402 50.95-96.402-50.927c-32.364-17.097-53.706-2.345-47.398 34.605l18.41 107.882-77.991 76.385c-26.185 25.645-18.762 50.61 18.105 55.993l107.777 15.748 48.183 98.103c16.183 32.95 42.086 33.596 58.632 0l48.207-98.126 107.753-15.748c36.176-5.277 44.794-29.844 18.105-55.994zM906.297 851.334a27.756 27.756 0 0 1 5.71 16.253 28.319 28.319 0 0 1-28.26 28.39H639.184c-13.193 0-23.781-9.288-26.889-21.577l-75.388-149.346s161.424-9.756 256.806-102.019z m-419.262-126.28l-75.342 149.37C408.586 886.713 398.008 896 384.816 896H140.252a28.319 28.319 0 0 1-28.248-28.39 27.827 27.827 0 0 1 5.652-16.264l112.572-228.311c95.417 92.25 256.807 102.019 256.807 102.019z"  horiz-adv-x="1024" />

    
    <glyph glyph-name="tongzhi" unicode="&#59003;" d="M906.615009 102.100413l-73.249725 128.198787v270.851443c0 58.300551-21.198805 119.674237-59.698454 172.724975-39.101382 53.974828-94.001323 96.173906-154.601353 118.874997-0.449253 0.124849-0.899529 0.349988-1.39995 0.474837-0.999818 0.324404-4.348237 1.349806-9.048508 2.725195v3.999273C608.617019 852.875808 565.315787 896 512.116663 896c-53.151027 0-96.500357-43.124192-96.500357-96.05008v-3.324882c-4.450572-1.25054-6.949606-2.150069-6.949606-2.150069l-1.049963-0.349988c-61.649993-22.024652-117.599896-64.225778-157.44935-118.649858-39.200648-53.499991-60.849729-115.449827-60.849729-174.325503v-270.85042l-78.850548-137.999461c-10.800492-18.699771-10.800492-42.099813 0.199554-60.899873 10.899757-18.749916 31.200056-30.400815 53.099859-30.400815h191.150487c6.750051-34.900509 25.200124-66.700251 52.450029-90.199559 29.149252-25.099835 66.249975-38.799492 104.650358-38.799492s75.49906 13.798923 104.649335 38.799492c27.249905 23.499307 45.699977 55.29905 52.500173 90.199559h191.150487c33.800402 0 61.298982 27.400338 61.298982 61.049283-0.001023 14.851955-5.399222 28.952768-15.001365 40.052079zM606.665481 1.000074c-13.049827-40.350899-51.549476-68.900465-94.649107-68.900465s-81.600304 28.549566-94.650131 68.900465H606.665481z m239.901086 60.250042H163.7655c-0.349988 0-0.599686 0.14941-0.599686 0.249699-0.249699 0.299843-0.249699 0.699975 0 0.901576l82.84982 145.098476c2.65049 4.601005 3.90103 9.700385 3.901031 14.850932V501.150643c0 97.900307 76.349468 199.425338 177.650384 236.275339 3.550019 1.150251 29.34983 9.02497 55.450506 13.449958 1.850226-0.100289 3.550019-0.100289 5.399222 0.12485 3.900007 0.351011 7.450026 0.925113 10.650059 1.375389 4.700271 0.675414 8.699543 1.349806 12.249563 1.349806 3.551043 0 7.60046-0.549542 12.399996-1.349806 3.300321-0.449253 6.750051-1.024379 10.550793-1.375389 1.599504-0.124849 3.200032-0.225138 4.799536-0.12485 26.799628-4.549838 53.650424-12.774544 59.249201-14.60021 99.499811-37.625704 174.449329-138.60017 174.449329-235.000238v-278.824404c0-5.250836 1.350829-10.349192 3.851909-14.850932l78.997912-138.249159c1.350829-2.500057 3.200032-4.751439 5.250835-6.750052 0 0 0.14941-0.100289 0.14941-0.402178 0-0.699975-0.599686-0.699975-0.849385-0.699975l-13.599368-0.248676zM541.21577 811.449363a24.876744 24.876744 0 0 1-4.300139 0.351011c-0.949674 0-1.749938 0-2.649467-0.100289-0.60071 0.100289-1.150251 0.100289-1.749937 0.225138-5.800378 0.899529-13.151139 1.924931-21.300117 1.924931-7.999568 0-14.999318-1.025402-21.299094-1.924931l-1.300684-0.225138c-2.399768 0.225138-4.799536 0.225138-7.199305-0.124849-1.25054-0.125873-2.400792-0.325427-3.650308-0.576149 4.700271 14.499921 18.300663 24.87572 34.250678 24.87572a35.931027 35.931027 0 0 0 34.399065-25.224685c-1.750961 0.249699-3.450754 0.599686-5.200692 0.799241z m0 0"  horiz-adv-x="1024" />

    
    <glyph glyph-name="jilu" unicode="&#58899;" d="M707.072 896H186.936889C115.143111 896 56.888889 838.712889 56.888889 768v-768C56.888889-70.769778 115.143111-128 186.936889-128h650.183111C908.856889-128 967.111111-70.712889 967.111111 0V640L707.072 896z m195.015111-896c0-35.328-29.127111-64.056889-64.967111-64.056889H186.88a64.512 64.512 0 0 0-64.967111 64V768.056889c0 35.328 29.070222 64 65.024 64h421.660444c-0.568889-76.686222 0.910222-192.056889 0.910223-192.056889 0-70.712889 58.254222-95.971556 130.048-95.971556h162.531555v-544.085333zM739.555556 607.971556a64.512 64.512 0 0 0-65.024 64V832.056889l227.555555-224.028445H739.555556z m-32.483556-256H316.871111a32.199111 32.199111 0 0 1-32.426667-32.028445c0-17.635556 14.506667-32.028444 32.426667-32.028444h390.144c17.92 0 32.426667 14.336 32.426667 32.028444a32.199111 32.199111 0 0 1-32.426667 31.971556z m0-160.028445H316.871111a32.199111 32.199111 0 0 1-32.426667-32.028444c0-17.635556 14.506667-31.971556 32.426667-31.971556h390.144c17.92 0 32.426667 14.336 32.426667 31.971556a32.199111 32.199111 0 0 1-32.426667 32.028444z"  horiz-adv-x="1024" />

    


  </font>
</defs>
</svg>
